<svg width="25" height="25" fill="none" xmlns="http://www.w3.org/2000/svg"><g clip-path="url(#clip0)"><path fill-rule="evenodd" clip-rule="evenodd" d="M.5 15.5a9 9 0 1118.1 0 9 9 0 01-18.1 0z" fill="#fff"/><path fill-rule="evenodd" clip-rule="evenodd" d="M13 23.9l-3.4-2.1v-3.2l2.8-2 3.3.7.7 4.1-3.5 2.5z" fill="#00ADEE"/><path fill-rule="evenodd" clip-rule="evenodd" d="M18.5 14.4l-2.8 3-3.3-.8-1-3.4 2-3.1 4 .8 1.1 3.5zM6.5 24l3-2.2v-3.2l-2.8-2-3.3.7-.5 4.3L6.5 24z" fill="#00ADEE"/><path fill-rule="evenodd" clip-rule="evenodd" d="M.6 14.4l2.8 3 3.3-.8 1-3.4-2-3.1-4 .8-1.1 3.5zM7.8 6.6l-2 3.5 2 3.1h3.5l2-3.1-2-3.5H7.8z" fill="#00ADEE"/><path d="M1.3 10.7a9.6 9.6 0 005 13.8 9.5 9.5 0 0010.5-2.8 9.5 9.5 0 002.2-7.3c0-.7-.2-1.3-.4-1.9l5.2-5a.5.5 0 00-.7-.8l-4.8 4.8a9.5 9.5 0 00-6-5.2L15.7 3a.5.5 0 00-.7-.7L11.2 6a9.6 9.6 0 00-10 4.7zm4.2 0l1.8 2.6-1 2.9-2.2.5h-.5L1 14.3c.1-1 .5-2 1-3l3.4-.6zm6.3 2.6l1.8-2.7 3.5.7c.4 1 .8 1.9 1 3l-2.6 2.5-2.7-.6-.6-2-.4-.9zm4.9 7l-.5-2.8 2-2c-.1 1.8-.6 3.4-1.5 4.7zM11 13.6l.8 2.7L9.6 18l-2.3-1.6.9-2.7H11zM1 15.5l1.9 2-.3 2.9c-1-1.4-1.6-3-1.6-4.9zm2.4 6l.4-3.8 1.1-.2 1.7-.4 2.5 1.8v2.6l-2.7 2a8.6 8.6 0 01-3-2zm4.2 2.3l2-1.4 2.2 1.3a8.5 8.5 0 01-4.2 0zm5.4-.5l-3-1.8v-2.6l1.8-1.3.7-.5 2.8.6.5 3.6c-.8.8-1.7 1.5-2.8 2zm3.3-13.1l-2.6-.5-1.4-2.4c1.6.6 3 1.6 4 2.9zM11 7l1.8 3-1.8 2.8H8L6.4 10 8.1 7A8.6 8.6 0 0111 7zm-4.2.3L5.4 9.7l-2.6.5c1-1.3 2.4-2.3 4-2.9z" fill="#fff"/><path d="M18.3 7.4L24.9.8a.5.5 0 10-.7-.7l-6.6 6.6a.5.5 0 00.7.7zM16.9 1.5a.5.5 0 00.5-.5.5.5 0 00-.5-.5.5.5 0 000 1z" fill="#fff"/></g><defs><clipPath id="clip0"><path fill="#fff" transform="rotate(-180 12.5 12.5)" d="M0 0h25v25H0z"/></clipPath></defs></svg>