<svg width="25" height="25" fill="none" xmlns="http://www.w3.org/2000/svg"><path d="M12.5 0a12.5 12.5 0 110 25 12.5 12.5 0 010-25z" fill="#fff"/><path d="M16.8 5.5H8.2a2.7 2.7 0 00-2.7 2.7v8.6c0 1.5 1.2 2.7 2.7 2.7h8.6c1.5 0 2.7-1.2 2.7-2.7V8.2c0-1.5-1.2-2.7-2.7-2.7zm.9 1.5h.3v2.4h-2.4V7h2zm-5.2 3.1c2 0 2.4 1.9 2.4 2.4a2.4 2.4 0 01-4.8 0c0-.5.4-2.4 2.4-2.4zm5.5 6.5c0 .8-.6 1.4-1.4 1.4H8.3c-.7 0-1.3-.6-1.3-1.4V11h2c-.2.5-.3 1-.3 1.6a3.9 3.9 0 007.6 0c0-.5 0-1.1-.2-1.6H18v5.7z" fill="#00ADEE"/></svg>