<svg width="292.362" height="292.362" xmlns="http://www.w3.org/2000/svg">

 <g>
  <title>background</title>
  <rect fill="none" id="canvas_background" height="402" width="582" y="-1" x="-1"/>
 </g>
 <g>
  <title>Layer 1</title>
  <g fill="white" id="svg_1">
   <path id="svg_2" d="m287.935,69.377c-3.614,-3.617 -7.898,-5.424 -12.848,-5.424l-255.813,0c-4.952,0 -9.233,1.807 -12.85,5.424c-3.617,3.621 -5.424,7.902 -5.424,12.851c0,4.948 1.807,9.229 5.424,12.847l127.907,127.907c3.621,3.617 7.902,5.428 12.85,5.428s9.233,-1.811 12.847,-5.428l127.907,-127.908c3.613,-3.617 5.427,-7.898 5.427,-12.847c0,-4.948 -1.814,-9.229 -5.427,-12.85z"/>
  </g>
  <g id="svg_3"/>
  <g id="svg_4"/>
  <g id="svg_5"/>
  <g id="svg_6"/>
  <g id="svg_7"/>
  <g id="svg_8"/>
  <g id="svg_9"/>
  <g id="svg_10"/>
  <g id="svg_11"/>
  <g id="svg_12"/>
  <g id="svg_13"/>
  <g id="svg_14"/>
  <g id="svg_15"/>
  <g id="svg_16"/>
  <g id="svg_17"/>
 </g>
</svg>